<svg width="24" height="24" viewBox="0 0 24 24" fill="none" xmlns="http://www.w3.org/2000/svg">
<g id="Icons/dashboard">
<path id="Icon (Stroke)" fill-rule="evenodd" clip-rule="evenodd" d="M12 1.25C12.4142 1.25 12.75 1.58579 12.75 2V3.25L18.8304 3.25C19.3646 3.24999 19.8104 3.24998 20.1747 3.27974C20.5546 3.31078 20.9112 3.37789 21.2485 3.54973C21.7659 3.81338 22.1866 4.23408 22.4503 4.75153C22.6221 5.08879 22.6892 5.44545 22.7203 5.82533C22.75 6.18956 22.75 6.6354 22.75 7.16955V13.8305C22.75 14.3646 22.75 14.8104 22.7203 15.1747C22.6892 15.5546 22.6221 15.9112 22.4503 16.2485C22.1866 16.7659 21.7659 17.1866 21.2485 17.4503C20.9112 17.6221 20.5546 17.6892 20.1747 17.7203C19.8104 17.75 19.3646 17.75 18.8305 17.75H16.8107L20.5303 21.4697C20.8232 21.7626 20.8232 22.2374 20.5303 22.5303C20.2374 22.8232 19.7626 22.8232 19.4697 22.5303L14.6893 17.75H12.75V22C12.75 22.4142 12.4142 22.75 12 22.75C11.5858 22.75 11.25 22.4142 11.25 22V17.75H9.31066L4.53033 22.5303C4.23744 22.8232 3.76256 22.8232 3.46967 22.5303C3.17678 22.2374 3.17678 21.7626 3.46967 21.4697L7.18934 17.75H5.16955C4.6354 17.75 4.18956 17.75 3.82533 17.7203C3.44545 17.6892 3.08879 17.6221 2.75153 17.4503C2.23408 17.1866 1.81338 16.7659 1.54973 16.2485C1.37789 15.9112 1.31078 15.5546 1.27974 15.1747C1.24998 14.8104 1.24999 14.3646 1.25 13.8304V7.16957C1.24999 6.63541 1.24998 6.18956 1.27974 5.82533C1.31078 5.44545 1.37789 5.08879 1.54973 4.75153C1.81338 4.23408 2.23408 3.81338 2.75153 3.54973C3.08879 3.37789 3.44545 3.31078 3.82533 3.27974C4.18956 3.24998 4.63541 3.24999 5.16957 3.25L11.25 3.25V2C11.25 1.58579 11.5858 1.25 12 1.25ZM5.2 4.75C4.62757 4.75 4.24336 4.75058 3.94748 4.77476C3.66036 4.79822 3.52307 4.8401 3.43251 4.88624C3.19731 5.00608 3.00608 5.19731 2.88624 5.43251C2.8401 5.52307 2.79822 5.66035 2.77476 5.94748C2.75058 6.24336 2.75 6.62757 2.75 7.2V13.8C2.75 14.3724 2.75058 14.7566 2.77476 15.0525C2.79822 15.3396 2.8401 15.4769 2.88624 15.5675C3.00608 15.8027 3.19731 15.9939 3.43251 16.1138C3.52307 16.1599 3.66036 16.2018 3.94748 16.2252C4.24336 16.2494 4.62757 16.25 5.2 16.25H18.8C19.3724 16.25 19.7566 16.2494 20.0525 16.2252C20.3396 16.2018 20.4769 16.1599 20.5675 16.1138C20.8027 15.9939 20.9939 15.8027 21.1138 15.5675C21.1599 15.4769 21.2018 15.3396 21.2252 15.0525C21.2494 14.7566 21.25 14.3724 21.25 13.8V7.2C21.25 6.62757 21.2494 6.24336 21.2252 5.94748C21.2018 5.66035 21.1599 5.52307 21.1138 5.43251C20.9939 5.19731 20.8027 5.00608 20.5675 4.88624C20.4769 4.8401 20.3396 4.79822 20.0525 4.77476C19.7566 4.75058 19.3724 4.75 18.8 4.75H5.2Z" fill="white"/>
</g>
</svg>
